<svg width="101" height="100" viewBox="0 0 101 100" fill="none" xmlns="http://www.w3.org/2000/svg">
<g clip-path="url(#clip0)">
<path d="M87.5674 87.5H81.3174V93.75C81.3174 95.5078 80.7152 96.9889 79.5107 98.1934C78.3063 99.3978 76.8252 100 75.0674 100H62.5674C60.8747 100 59.4098 99.3978 58.1729 98.1934C56.9359 96.9889 56.3174 95.5078 56.3174 93.75V87.5H12.5674C9.11686 87.5 6.1709 86.2793 3.72949 83.8379C1.28809 81.3965 0.0673828 78.4505 0.0673828 75V25C0.0673828 23.3073 0.685872 21.8424 1.92285 20.6055C3.15983 19.3685 4.62467 18.75 6.31738 18.75H53.1924L57.6846 10.5469C58.2705 9.50521 59.2471 8.52865 60.6143 7.61719C61.9814 6.70573 63.3486 6.25 64.7158 6.25H88.1533C89.7158 6.25 91.1807 6.6569 92.5479 7.4707C93.915 8.28451 94.8265 9.3099 95.2822 10.5469C98.4723 14.9089 100.067 17.6432 100.067 18.75V75C100.067 78.4505 98.8467 81.3965 96.4053 83.8379C93.9639 86.2793 91.0179 87.5 87.5674 87.5V87.5ZM87.5674 62.5H75.0674V50C75.0674 48.3073 74.4489 46.8424 73.2119 45.6055C71.9749 44.3685 70.4938 43.75 68.7686 43.75C67.0433 43.75 65.5785 44.3685 64.374 45.6055C63.1696 46.8424 62.5674 48.3073 62.5674 50V62.5H50.0674C48.3096 62.5 46.8285 63.1185 45.624 64.3555C44.4196 65.5924 43.8174 67.0736 43.8174 68.7988C43.8174 70.5241 44.4196 71.9889 45.624 73.1934C46.8285 74.3978 48.3096 75 50.0674 75H62.5674V87.5C62.5674 89.2578 63.1696 90.7389 64.374 91.9434C65.5785 93.1478 67.0433 93.75 68.7686 93.75C70.4938 93.75 71.9749 93.1478 73.2119 91.9434C74.4489 90.7389 75.0674 89.2578 75.0674 87.5V75H87.5674C89.2601 75 90.7249 74.3978 91.9619 73.1934C93.1989 71.9889 93.8174 70.5241 93.8174 68.7988C93.8174 67.0736 93.1989 65.5924 91.9619 64.3555C90.7249 63.1185 89.2601 62.5 87.5674 62.5ZM4.55957 4.29688C5.0153 3.0599 5.92676 2.03451 7.29395 1.2207C8.66113 0.406901 10.0934 0 11.5908 0H35.0283C36.5908 0 38.0557 0.406901 39.4229 1.2207C40.79 2.03451 41.734 3.0599 42.2549 4.29688L46.9424 12.5H0.0673828L4.55957 4.29688Z" fill="black"/>
</g>
<defs>
<clipPath id="clip0">
<rect width="100.1" height="100" fill="white"/>
</clipPath>
</defs>
</svg>
