<svg width="100" height="100" viewBox="0 0 100 100" fill="none" xmlns="http://www.w3.org/2000/svg">
<path d="M50.002 2.00195C37.2716 2.00195 25.0626 7.05908 16.0608 16.0608C7.05908 25.0626 2.00195 37.2716 2.00195 50.002C2.00228 56.3054 3.24416 62.5471 5.65669 68.3706C8.06922 74.1941 11.6052 79.4854 16.0626 83.9423C20.52 88.3993 25.8117 91.9347 31.6355 94.3466C37.4592 96.7585 43.701 97.9998 50.0045 97.9995C56.3079 97.9991 62.5496 96.7572 68.3731 94.3447C74.1966 91.9322 79.4879 88.3963 83.9448 83.9388C88.4018 79.4814 91.9372 74.1897 94.3491 68.366C96.7611 62.5422 98.0023 56.3004 98.002 49.997C98.002 23.492 76.507 2.00195 50.002 2.00195ZM50.002 87.997C44.9754 88.0546 39.9873 87.1144 35.3267 85.2307C30.666 83.347 26.4255 80.5573 22.8506 77.0232C19.2757 73.4891 16.4375 69.2808 14.5005 64.642C12.5635 60.0033 11.5661 55.0264 11.5661 49.9995C11.5661 44.9725 12.5635 39.9956 14.5005 35.3569C16.4375 30.7181 19.2757 26.5098 22.8506 22.9757C26.4255 19.4416 30.666 16.6519 35.3267 14.7682C39.9873 12.8845 44.9754 11.9443 50.002 12.002C55.0285 11.9443 60.0166 12.8845 64.6772 14.7682C69.3379 16.6519 73.5785 19.4416 77.1533 22.9757C80.7282 26.5098 83.5664 30.7181 85.5034 35.3569C87.4404 39.9956 88.4378 44.9725 88.4378 49.9995C88.4378 55.0264 87.4404 60.0033 85.5034 64.642C83.5664 69.2808 80.7282 73.4891 77.1533 77.0232C73.5785 80.5573 69.3379 83.347 64.6772 85.2307C60.0166 87.1144 55.0285 88.0546 50.002 87.997ZM37.507 48.752C41.647 48.752 45.002 44.837 45.002 40.002C45.002 35.167 41.642 31.252 37.502 31.252C33.362 31.252 30.002 35.167 30.002 40.002C30.002 44.837 33.362 48.752 37.507 48.752ZM62.502 48.752C66.647 48.752 70.002 44.837 70.002 40.002C70.002 35.167 66.642 31.252 62.502 31.252C58.362 31.252 55.002 35.172 55.002 40.002C55.002 44.832 58.362 48.752 62.502 48.752ZM71.707 56.682C70.8245 56.2368 69.8027 56.1549 68.8606 56.454C67.9185 56.7531 67.1311 57.4093 66.667 58.282C66.497 58.612 62.322 66.247 50.007 66.247C37.752 66.247 33.552 58.682 33.342 58.287C32.8924 57.3991 32.1086 56.7263 31.1629 56.4164C30.2173 56.1065 29.1873 56.1849 28.2995 56.6345C27.4116 57.084 26.7388 57.8678 26.4289 58.8135C26.119 59.7591 26.1974 60.7891 26.647 61.677C26.897 62.172 32.887 73.747 50.007 73.747C67.132 73.747 73.1119 62.167 73.3569 61.672C73.7975 60.791 73.8712 59.7715 73.562 58.8363C73.2528 57.9012 72.5858 57.1266 71.707 56.682Z" fill="black"/>
</svg>
