<svg width="159" height="90" viewBox="0 0 159 90" fill="none" xmlns="http://www.w3.org/2000/svg">
<path d="M60.097 79.1539C60.5539 78.4229 61.355 77.9789 62.217 77.9789H79.7549C80.6168 77.9789 81.418 78.4229 81.8749 79.1539L85.3256 84.675C86.3663 86.3401 85.1692 88.5 83.2056 88.5H58.7663C56.8027 88.5 55.6056 86.3401 56.6463 84.675L60.097 79.1539Z" fill="white" stroke="black" stroke-width="3"/>
<path d="M14.176 8C14.176 4.41015 17.0862 1.5 20.676 1.5H120.451C124.041 1.5 126.951 4.41015 126.951 8V70.5916C126.951 74.1814 124.041 77.0916 120.451 77.0916H20.676C17.0862 77.0916 14.176 74.1814 14.176 70.5916V8Z" fill="white" stroke="black" stroke-width="3"/>
<path d="M1.5 47.2958C1.5 43.7059 4.41015 40.7958 8 40.7958H19.8873C23.4772 40.7958 26.3873 43.7059 26.3873 47.2958V78.6197C26.3873 82.2096 23.4772 85.1197 19.8873 85.1197H8C4.41015 85.1197 1.5 82.2096 1.5 78.6197V47.2958Z" fill="white" stroke="black" stroke-width="3"/>
<rect x="8.45068" y="81.5493" width="10.9859" height="1.69014" rx="0.84507" fill="black"/>
<rect x="7.60565" y="40.1409" width="12.6761" height="3.38028" rx="1.69014" fill="black"/>
<path d="M99.5282 26.1691C99.5282 22.5792 102.438 19.6691 106.028 19.6691H150.028C153.618 19.6691 156.528 22.5792 156.528 26.1691V79.4649C156.528 83.0547 153.618 85.9648 150.028 85.9648H106.028C102.438 85.9648 99.5282 83.0547 99.5282 79.4648V26.1691Z" fill="white" stroke="black" stroke-width="3"/>
<rect x="120" y="81.5493" width="16.0563" height="1.69014" rx="0.84507" fill="black"/>
</svg>
