<svg width="100" height="100" viewBox="0 0 100 100" fill="none" xmlns="http://www.w3.org/2000/svg">
<path d="M49.958 8.3335C26.958 8.3335 8.33301 27.0002 8.33301 50.0002C8.33301 73.0002 26.958 91.6668 49.958 91.6668C72.9997 91.6668 91.6663 73.0002 91.6663 50.0002C91.6663 27.0002 72.9997 8.3335 49.958 8.3335ZM49.9997 83.3335C31.583 83.3335 16.6663 68.4168 16.6663 50.0002C16.6663 31.5835 31.583 16.6668 49.9997 16.6668C68.4163 16.6668 83.333 31.5835 83.333 50.0002C83.333 68.4168 68.4163 83.3335 49.9997 83.3335Z" fill="black"/>
<path d="M52.083 29.1665H45.833V54.1665L67.708 67.2915L70.833 62.1665L52.083 51.0415V29.1665Z" fill="black"/>
</svg>
